# xmcd CD database file
# Copyright (C) 1993-1996 Ti Kan
#
# Track frame offsets:
#	150
#	13311
#	25342
#	42208
#	56077
#	82580
#	115359
#	126894
#	148615
#	160454
#	169555
#	182572
#	199531
#	212267
#	222039
#	240112
#
# Disc length: 3419 seconds
#
# Revision: 1
# Processed by: cddbd v1.4b41PL1 Copyright (c) Steve Scherf et al.
# Submitted via: EasyCD2 v3.00 - Copyright (c) 1997 Greg Leichner
#
DISCID=cd0d5910
DTITLE=Saoul Kitchen - Compilation
DYEAR=1900
DGENRE=
TTITLE0=Sam and Dave - Soul man
TTITLE1=James Brown: It's too funky here
TTITLE2=Cameron: Just my imagination
TTITLE3=Contours: This old heart of mine
TTITLE4=Billy paul: Me and Mrs Jones
TTITLE5=Harold Melvin and Blue Notes: Wake Up...
TTITLE6=drifters Up on the Roof
TTITLE7=Rose Royce: Car Wash
TTITLE8=Wilson Pickett: if you need me
TTITLE9=al Jarreau: Ain't no sunshine
TTITLE10=Sam and Dave: I thank you
TTITLE11=Tavares: More than a woman
TTITLE12=Drifters: on Broadway
TTITLE13=James Brown: please please
TTITLE14=Sherrie Payne: Ain't no mountain high enough
TTITLE15=Barbara randolph: You can't hury love
EXTD=
EXTT0=
EXTT1=
EXTT2=
EXTT3=
EXTT4=
EXTT5=
EXTT6=
EXTT7=
EXTT8=
EXTT9=
EXTT10=
EXTT11=
EXTT12=
EXTT13=
EXTT14=
EXTT15=
PLAYORDER=
